# xmcd CD database file
#
# Track frame offsets:
#	150
#	5080
#	26025
#	42808
#	62962
#	81916
#	105360
#	128027
#	136102
#	157365
#	180673
#	208163
#	221663
#
# Disc length: 3072 seconds
#
# Revision: 0
# Processed by: cddbd v1.5PL3 Copyright (c) Steve Scherf et al.
# Submitted via: CDex 1.51
#
DISCID=ba0bfe0d
DTITLE=Skilda - 13 Dreams
DYEAR=2003
DGENRE=Jazz
TTITLE0=Welcome to the new Century
TTITLE1=Hi ri him bo
TTITLE2=Freedom, future
TTITLE3=Airfailarin
TTITLE4=The flower of Finae Part 2
TTITLE5=Moonstone
TTITLE6=Trip Bopp reel
TTITLE7=A cry...
TTITLE8=And it's gone
TTITLE9=Lewis (Cosmic reel)
TTITLE10=Gossannah
TTITLE11=The flower of Finae Part 1
TTITLE12=The wicker man
EXTD=YEAR: 2003
EXTT0=
EXTT1=
EXTT2=
EXTT3=
EXTT4=
EXTT5=
EXTT6=
EXTT7=
EXTT8=
EXTT9=
EXTT10=
EXTT11=
EXTT12=
PLAYORDER=
